<mxfile host="Electron" agent="Mozilla/5.0 (Windows NT 10.0; Win64; x64) AppleWebKit/537.36 (KHTML, like Gecko) draw.io/24.7.17 Chrome/128.0.6613.36 Electron/32.0.1 Safari/537.36" version="24.7.17">
  <diagram name="Page-1" id="xiyVw9uQiT7JrwGa-Qpi">
    <mxGraphModel dx="1844" dy="944" grid="0" gridSize="10" guides="1" tooltips="1" connect="1" arrows="1" fold="1" page="0" pageScale="1" pageWidth="850" pageHeight="1100" background="#333333" math="0" shadow="0">
      <root>
        <mxCell id="0" />
        <mxCell id="1" parent="0" />
        <mxCell id="aGjcq6fE5PS45IQPLA7D-1" value="Vendor" style="whiteSpace=wrap;html=1;align=center;" parent="1" vertex="1">
          <mxGeometry x="247" y="227" width="100" height="40" as="geometry" />
        </mxCell>
        <mxCell id="aGjcq6fE5PS45IQPLA7D-2" value="terms and conditions" style="ellipse;whiteSpace=wrap;html=1;align=center;" parent="1" vertex="1">
          <mxGeometry x="947" y="222" width="100" height="40" as="geometry" />
        </mxCell>
        <mxCell id="aGjcq6fE5PS45IQPLA7D-3" value="start_date" style="ellipse;whiteSpace=wrap;html=1;align=center;" parent="1" vertex="1">
          <mxGeometry x="767" y="176" width="100" height="40" as="geometry" />
        </mxCell>
        <mxCell id="aGjcq6fE5PS45IQPLA7D-4" value="end_date" style="ellipse;whiteSpace=wrap;html=1;align=center;" parent="1" vertex="1">
          <mxGeometry x="867" y="192" width="100" height="40" as="geometry" />
        </mxCell>
        <mxCell id="aGjcq6fE5PS45IQPLA7D-5" value="performance rating" style="ellipse;whiteSpace=wrap;html=1;align=center;" parent="1" vertex="1">
          <mxGeometry x="387" y="217" width="100" height="40" as="geometry" />
        </mxCell>
        <mxCell id="aGjcq6fE5PS45IQPLA7D-7" value="Compliance_certifications" style="ellipse;whiteSpace=wrap;html=1;align=center;" parent="1" vertex="1">
          <mxGeometry x="357" y="157" width="150" height="40" as="geometry" />
        </mxCell>
        <mxCell id="aGjcq6fE5PS45IQPLA7D-8" value="services_catagories" style="ellipse;whiteSpace=wrap;html=1;align=center;" parent="1" vertex="1">
          <mxGeometry x="302" y="107" width="115" height="40" as="geometry" />
        </mxCell>
        <mxCell id="aGjcq6fE5PS45IQPLA7D-9" value="contact info" style="ellipse;whiteSpace=wrap;html=1;align=center;" parent="1" vertex="1">
          <mxGeometry x="197" y="107" width="100" height="40" as="geometry" />
        </mxCell>
        <mxCell id="aGjcq6fE5PS45IQPLA7D-10" value="name" style="ellipse;whiteSpace=wrap;html=1;align=center;" parent="1" vertex="1">
          <mxGeometry x="107" y="147" width="100" height="40" as="geometry" />
        </mxCell>
        <mxCell id="aGjcq6fE5PS45IQPLA7D-11" value="Vendor id" style="ellipse;whiteSpace=wrap;html=1;align=center;fontStyle=4;" parent="1" vertex="1">
          <mxGeometry x="117" y="237" width="100" height="40" as="geometry" />
        </mxCell>
        <mxCell id="aGjcq6fE5PS45IQPLA7D-12" value="" style="endArrow=none;html=1;rounded=0;entryX=0;entryY=0.5;entryDx=0;entryDy=0;" parent="1" target="aGjcq6fE5PS45IQPLA7D-5" edge="1">
          <mxGeometry width="50" height="50" relative="1" as="geometry">
            <mxPoint x="347" y="247" as="sourcePoint" />
            <mxPoint x="397" y="197" as="targetPoint" />
          </mxGeometry>
        </mxCell>
        <mxCell id="aGjcq6fE5PS45IQPLA7D-13" value="" style="endArrow=none;html=1;rounded=0;exitX=1;exitY=0.5;exitDx=0;exitDy=0;" parent="1" source="aGjcq6fE5PS45IQPLA7D-11" edge="1">
          <mxGeometry width="50" height="50" relative="1" as="geometry">
            <mxPoint x="197" y="297" as="sourcePoint" />
            <mxPoint x="247" y="247" as="targetPoint" />
          </mxGeometry>
        </mxCell>
        <mxCell id="aGjcq6fE5PS45IQPLA7D-14" value="" style="endArrow=none;html=1;rounded=0;exitX=1;exitY=1;exitDx=0;exitDy=0;" parent="1" source="aGjcq6fE5PS45IQPLA7D-10" edge="1">
          <mxGeometry width="50" height="50" relative="1" as="geometry">
            <mxPoint x="197" y="277" as="sourcePoint" />
            <mxPoint x="247" y="227" as="targetPoint" />
          </mxGeometry>
        </mxCell>
        <mxCell id="aGjcq6fE5PS45IQPLA7D-15" value="" style="endArrow=none;html=1;rounded=0;entryX=0.719;entryY=0.98;entryDx=0;entryDy=0;entryPerimeter=0;" parent="1" target="aGjcq6fE5PS45IQPLA7D-9" edge="1">
          <mxGeometry width="50" height="50" relative="1" as="geometry">
            <mxPoint x="267" y="227" as="sourcePoint" />
            <mxPoint x="317" y="177" as="targetPoint" />
          </mxGeometry>
        </mxCell>
        <mxCell id="aGjcq6fE5PS45IQPLA7D-16" value="" style="endArrow=none;html=1;rounded=0;entryX=0.066;entryY=0.808;entryDx=0;entryDy=0;entryPerimeter=0;" parent="1" target="aGjcq6fE5PS45IQPLA7D-7" edge="1">
          <mxGeometry width="50" height="50" relative="1" as="geometry">
            <mxPoint x="334.5" y="227" as="sourcePoint" />
            <mxPoint x="384.5" y="177" as="targetPoint" />
          </mxGeometry>
        </mxCell>
        <mxCell id="aGjcq6fE5PS45IQPLA7D-17" value="" style="endArrow=none;html=1;rounded=0;entryX=0.264;entryY=1.039;entryDx=0;entryDy=0;entryPerimeter=0;" parent="1" target="aGjcq6fE5PS45IQPLA7D-8" edge="1">
          <mxGeometry width="50" height="50" relative="1" as="geometry">
            <mxPoint x="297" y="227" as="sourcePoint" />
            <mxPoint x="347" y="177" as="targetPoint" />
          </mxGeometry>
        </mxCell>
        <mxCell id="aGjcq6fE5PS45IQPLA7D-18" value="Contract" style="whiteSpace=wrap;html=1;align=center;" parent="1" vertex="1">
          <mxGeometry x="807" y="312" width="100" height="40" as="geometry" />
        </mxCell>
        <mxCell id="aGjcq6fE5PS45IQPLA7D-20" value="notification flag" style="ellipse;whiteSpace=wrap;html=1;align=center;" parent="1" vertex="1">
          <mxGeometry x="947" y="332" width="100" height="40" as="geometry" />
        </mxCell>
        <mxCell id="aGjcq6fE5PS45IQPLA7D-21" value="status" style="ellipse;whiteSpace=wrap;html=1;align=center;" parent="1" vertex="1">
          <mxGeometry x="977" y="282" width="100" height="40" as="geometry" />
        </mxCell>
        <mxCell id="aGjcq6fE5PS45IQPLA7D-25" value="contract id" style="ellipse;whiteSpace=wrap;html=1;align=center;fontStyle=4;" parent="1" vertex="1">
          <mxGeometry x="657" y="272" width="100" height="40" as="geometry" />
        </mxCell>
        <mxCell id="aGjcq6fE5PS45IQPLA7D-26" value="&lt;span style=&quot;border-bottom: 1px dotted&quot;&gt;verdor id&lt;/span&gt;" style="ellipse;whiteSpace=wrap;html=1;align=center;" parent="1" vertex="1">
          <mxGeometry x="676" y="205" width="100" height="40" as="geometry" />
        </mxCell>
        <mxCell id="aGjcq6fE5PS45IQPLA7D-28" value="" style="endArrow=none;html=1;rounded=0;exitX=1;exitY=0.5;exitDx=0;exitDy=0;" parent="1" source="aGjcq6fE5PS45IQPLA7D-25" edge="1">
          <mxGeometry width="50" height="50" relative="1" as="geometry">
            <mxPoint x="757" y="382" as="sourcePoint" />
            <mxPoint x="807" y="332" as="targetPoint" />
          </mxGeometry>
        </mxCell>
        <mxCell id="aGjcq6fE5PS45IQPLA7D-29" value="" style="endArrow=none;html=1;rounded=0;exitX=1;exitY=1;exitDx=0;exitDy=0;" parent="1" source="aGjcq6fE5PS45IQPLA7D-26" edge="1">
          <mxGeometry width="50" height="50" relative="1" as="geometry">
            <mxPoint x="757" y="362" as="sourcePoint" />
            <mxPoint x="807" y="312" as="targetPoint" />
          </mxGeometry>
        </mxCell>
        <mxCell id="aGjcq6fE5PS45IQPLA7D-30" value="" style="endArrow=none;html=1;rounded=0;entryX=0.76;entryY=0.999;entryDx=0;entryDy=0;entryPerimeter=0;" parent="1" target="aGjcq6fE5PS45IQPLA7D-3" edge="1">
          <mxGeometry width="50" height="50" relative="1" as="geometry">
            <mxPoint x="832" y="312" as="sourcePoint" />
            <mxPoint x="882" y="262" as="targetPoint" />
          </mxGeometry>
        </mxCell>
        <mxCell id="aGjcq6fE5PS45IQPLA7D-31" value="" style="endArrow=none;html=1;rounded=0;entryX=0;entryY=0.5;entryDx=0;entryDy=0;" parent="1" target="aGjcq6fE5PS45IQPLA7D-20" edge="1">
          <mxGeometry width="50" height="50" relative="1" as="geometry">
            <mxPoint x="907" y="342" as="sourcePoint" />
            <mxPoint x="957" y="292" as="targetPoint" />
          </mxGeometry>
        </mxCell>
        <mxCell id="aGjcq6fE5PS45IQPLA7D-32" value="" style="endArrow=none;html=1;rounded=0;entryX=0;entryY=0.5;entryDx=0;entryDy=0;" parent="1" target="aGjcq6fE5PS45IQPLA7D-21" edge="1">
          <mxGeometry width="50" height="50" relative="1" as="geometry">
            <mxPoint x="907" y="322" as="sourcePoint" />
            <mxPoint x="957" y="272" as="targetPoint" />
          </mxGeometry>
        </mxCell>
        <mxCell id="aGjcq6fE5PS45IQPLA7D-33" value="" style="endArrow=none;html=1;rounded=0;" parent="1" edge="1">
          <mxGeometry width="50" height="50" relative="1" as="geometry">
            <mxPoint x="907" y="312" as="sourcePoint" />
            <mxPoint x="957" y="262" as="targetPoint" />
          </mxGeometry>
        </mxCell>
        <mxCell id="aGjcq6fE5PS45IQPLA7D-34" value="" style="endArrow=none;html=1;rounded=0;entryX=0.355;entryY=1.07;entryDx=0;entryDy=0;entryPerimeter=0;" parent="1" target="aGjcq6fE5PS45IQPLA7D-4" edge="1">
          <mxGeometry width="50" height="50" relative="1" as="geometry">
            <mxPoint x="877" y="312" as="sourcePoint" />
            <mxPoint x="927" y="262" as="targetPoint" />
          </mxGeometry>
        </mxCell>
        <mxCell id="aGjcq6fE5PS45IQPLA7D-36" value="total_cost" style="ellipse;whiteSpace=wrap;html=1;align=center;" parent="1" vertex="1">
          <mxGeometry x="1077" y="530" width="100" height="40" as="geometry" />
        </mxCell>
        <mxCell id="aGjcq6fE5PS45IQPLA7D-37" value="items_details" style="ellipse;whiteSpace=wrap;html=1;align=center;" parent="1" vertex="1">
          <mxGeometry x="855" y="504" width="100" height="40" as="geometry" />
        </mxCell>
        <mxCell id="aGjcq6fE5PS45IQPLA7D-38" value="quantity" style="ellipse;whiteSpace=wrap;html=1;align=center;" parent="1" vertex="1">
          <mxGeometry x="934" y="534" width="100" height="40" as="geometry" />
        </mxCell>
        <mxCell id="aGjcq6fE5PS45IQPLA7D-39" value="Purchase_order" style="whiteSpace=wrap;html=1;align=center;" parent="1" vertex="1">
          <mxGeometry x="810" y="640" width="100" height="40" as="geometry" />
        </mxCell>
        <mxCell id="aGjcq6fE5PS45IQPLA7D-41" value="status" style="ellipse;whiteSpace=wrap;html=1;align=center;" parent="1" vertex="1">
          <mxGeometry x="1038" y="646" width="100" height="40" as="geometry" />
        </mxCell>
        <mxCell id="aGjcq6fE5PS45IQPLA7D-42" value="PO_ID" style="ellipse;whiteSpace=wrap;html=1;align=center;fontStyle=4;" parent="1" vertex="1">
          <mxGeometry x="792" y="714" width="100" height="40" as="geometry" />
        </mxCell>
        <mxCell id="aGjcq6fE5PS45IQPLA7D-43" value="&lt;span style=&quot;border-bottom: 1px dotted&quot;&gt;verdor id&lt;/span&gt;" style="ellipse;whiteSpace=wrap;html=1;align=center;" parent="1" vertex="1">
          <mxGeometry x="1147" y="587" width="100" height="40" as="geometry" />
        </mxCell>
        <mxCell id="aGjcq6fE5PS45IQPLA7D-46" value="" style="endArrow=none;html=1;rounded=0;entryX=0.76;entryY=0.999;entryDx=0;entryDy=0;entryPerimeter=0;" parent="1" target="aGjcq6fE5PS45IQPLA7D-37" edge="1">
          <mxGeometry width="50" height="50" relative="1" as="geometry">
            <mxPoint x="835" y="640" as="sourcePoint" />
            <mxPoint x="885" y="590" as="targetPoint" />
          </mxGeometry>
        </mxCell>
        <mxCell id="aGjcq6fE5PS45IQPLA7D-47" value="" style="endArrow=none;html=1;rounded=0;entryX=0;entryY=0.5;entryDx=0;entryDy=0;" parent="1" edge="1">
          <mxGeometry width="50" height="50" relative="1" as="geometry">
            <mxPoint x="910" y="670" as="sourcePoint" />
            <mxPoint x="966" y="684" as="targetPoint" />
          </mxGeometry>
        </mxCell>
        <mxCell id="aGjcq6fE5PS45IQPLA7D-48" value="" style="endArrow=none;html=1;rounded=0;entryX=0;entryY=0.5;entryDx=0;entryDy=0;" parent="1" target="aGjcq6fE5PS45IQPLA7D-41" edge="1">
          <mxGeometry width="50" height="50" relative="1" as="geometry">
            <mxPoint x="910" y="650" as="sourcePoint" />
            <mxPoint x="960" y="600" as="targetPoint" />
          </mxGeometry>
        </mxCell>
        <mxCell id="aGjcq6fE5PS45IQPLA7D-49" value="" style="endArrow=none;html=1;rounded=0;entryX=0;entryY=0.5;entryDx=0;entryDy=0;" parent="1" target="aGjcq6fE5PS45IQPLA7D-36" edge="1">
          <mxGeometry width="50" height="50" relative="1" as="geometry">
            <mxPoint x="910" y="640" as="sourcePoint" />
            <mxPoint x="960" y="590" as="targetPoint" />
          </mxGeometry>
        </mxCell>
        <mxCell id="aGjcq6fE5PS45IQPLA7D-50" value="" style="endArrow=none;html=1;rounded=0;entryX=0.355;entryY=1.07;entryDx=0;entryDy=0;entryPerimeter=0;" parent="1" target="aGjcq6fE5PS45IQPLA7D-38" edge="1">
          <mxGeometry width="50" height="50" relative="1" as="geometry">
            <mxPoint x="880" y="640" as="sourcePoint" />
            <mxPoint x="930" y="590" as="targetPoint" />
          </mxGeometry>
        </mxCell>
        <mxCell id="aGjcq6fE5PS45IQPLA7D-52" value="&lt;span style=&quot;border-bottom: 1px dotted&quot;&gt;dept_id&lt;/span&gt;" style="ellipse;whiteSpace=wrap;html=1;align=center;" parent="1" vertex="1">
          <mxGeometry x="950" y="680" width="100" height="40" as="geometry" />
        </mxCell>
        <mxCell id="aGjcq6fE5PS45IQPLA7D-56" value="Department" style="whiteSpace=wrap;html=1;align=center;" parent="1" vertex="1">
          <mxGeometry x="686" y="817" width="100" height="40" as="geometry" />
        </mxCell>
        <mxCell id="aGjcq6fE5PS45IQPLA7D-57" value="name" style="ellipse;whiteSpace=wrap;html=1;align=center;" parent="1" vertex="1">
          <mxGeometry x="874" y="819" width="100" height="40" as="geometry" />
        </mxCell>
        <mxCell id="aGjcq6fE5PS45IQPLA7D-58" value="dept_id" style="ellipse;whiteSpace=wrap;html=1;align=center;fontStyle=4;" parent="1" vertex="1">
          <mxGeometry x="774" y="924" width="100" height="40" as="geometry" />
        </mxCell>
        <mxCell id="aGjcq6fE5PS45IQPLA7D-59" value="&lt;span style=&quot;border-bottom: 1px dotted&quot;&gt;budget id&lt;/span&gt;" style="ellipse;whiteSpace=wrap;html=1;align=center;" parent="1" vertex="1">
          <mxGeometry x="853" y="876" width="100" height="40" as="geometry" />
        </mxCell>
        <mxCell id="aGjcq6fE5PS45IQPLA7D-64" value="" style="endArrow=none;html=1;rounded=0;entryX=0;entryY=0.5;entryDx=0;entryDy=0;" parent="1" target="aGjcq6fE5PS45IQPLA7D-57" edge="1">
          <mxGeometry width="50" height="50" relative="1" as="geometry">
            <mxPoint x="788" y="823" as="sourcePoint" />
            <mxPoint x="831" y="854" as="targetPoint" />
          </mxGeometry>
        </mxCell>
        <mxCell id="aGjcq6fE5PS45IQPLA7D-69" value="" style="endArrow=none;html=1;rounded=0;entryX=0;entryY=0.5;entryDx=0;entryDy=0;" parent="1" target="aGjcq6fE5PS45IQPLA7D-59" edge="1">
          <mxGeometry width="50" height="50" relative="1" as="geometry">
            <mxPoint x="784" y="846.5" as="sourcePoint" />
            <mxPoint x="882" y="827.5" as="targetPoint" />
          </mxGeometry>
        </mxCell>
        <mxCell id="aGjcq6fE5PS45IQPLA7D-70" value="" style="endArrow=none;html=1;rounded=0;entryX=0;entryY=0.5;entryDx=0;entryDy=0;exitX=0.75;exitY=1;exitDx=0;exitDy=0;" parent="1" source="aGjcq6fE5PS45IQPLA7D-56" target="aGjcq6fE5PS45IQPLA7D-58" edge="1">
          <mxGeometry width="50" height="50" relative="1" as="geometry">
            <mxPoint x="781" y="857" as="sourcePoint" />
            <mxPoint x="875" y="868.5" as="targetPoint" />
          </mxGeometry>
        </mxCell>
        <mxCell id="aGjcq6fE5PS45IQPLA7D-71" value="terms and conditions" style="ellipse;whiteSpace=wrap;html=1;align=center;" parent="1" vertex="1">
          <mxGeometry x="300" y="417.5" width="100" height="40" as="geometry" />
        </mxCell>
        <mxCell id="aGjcq6fE5PS45IQPLA7D-72" value="allocated_amount" style="ellipse;whiteSpace=wrap;html=1;align=center;" parent="1" vertex="1">
          <mxGeometry x="107" y="457.5" width="100" height="40" as="geometry" />
        </mxCell>
        <mxCell id="aGjcq6fE5PS45IQPLA7D-73" value="spent_amount" style="ellipse;whiteSpace=wrap;html=1;align=center;" parent="1" vertex="1">
          <mxGeometry x="197" y="421.5" width="100" height="40" as="geometry" />
        </mxCell>
        <mxCell id="aGjcq6fE5PS45IQPLA7D-74" value="Budget" style="whiteSpace=wrap;html=1;align=center;" parent="1" vertex="1">
          <mxGeometry x="211" y="560.5" width="100" height="40" as="geometry" />
        </mxCell>
        <mxCell id="aGjcq6fE5PS45IQPLA7D-75" value="remaining_amount" style="ellipse;whiteSpace=wrap;html=1;align=center;" parent="1" vertex="1">
          <mxGeometry x="357" y="470.5" width="107" height="41" as="geometry" />
        </mxCell>
        <mxCell id="aGjcq6fE5PS45IQPLA7D-77" value="budget_id" style="ellipse;whiteSpace=wrap;html=1;align=center;fontStyle=4;" parent="1" vertex="1">
          <mxGeometry x="78" y="570.5" width="100" height="40" as="geometry" />
        </mxCell>
        <mxCell id="aGjcq6fE5PS45IQPLA7D-78" value="&lt;span style=&quot;border-bottom: 1px dotted&quot;&gt;dept_id&lt;/span&gt;" style="ellipse;whiteSpace=wrap;html=1;align=center;" parent="1" vertex="1">
          <mxGeometry x="72" y="511.5" width="100" height="40" as="geometry" />
        </mxCell>
        <mxCell id="aGjcq6fE5PS45IQPLA7D-79" value="" style="endArrow=none;html=1;rounded=0;exitX=1;exitY=0.5;exitDx=0;exitDy=0;" parent="1" source="aGjcq6fE5PS45IQPLA7D-77" edge="1">
          <mxGeometry width="50" height="50" relative="1" as="geometry">
            <mxPoint x="161" y="630.5" as="sourcePoint" />
            <mxPoint x="211" y="580.5" as="targetPoint" />
          </mxGeometry>
        </mxCell>
        <mxCell id="aGjcq6fE5PS45IQPLA7D-80" value="" style="endArrow=none;html=1;rounded=0;exitX=1;exitY=1;exitDx=0;exitDy=0;" parent="1" source="aGjcq6fE5PS45IQPLA7D-78" edge="1">
          <mxGeometry width="50" height="50" relative="1" as="geometry">
            <mxPoint x="161" y="610.5" as="sourcePoint" />
            <mxPoint x="211" y="560.5" as="targetPoint" />
          </mxGeometry>
        </mxCell>
        <mxCell id="aGjcq6fE5PS45IQPLA7D-81" value="" style="endArrow=none;html=1;rounded=0;entryX=0.76;entryY=0.999;entryDx=0;entryDy=0;entryPerimeter=0;" parent="1" target="aGjcq6fE5PS45IQPLA7D-72" edge="1">
          <mxGeometry width="50" height="50" relative="1" as="geometry">
            <mxPoint x="236" y="560.5" as="sourcePoint" />
            <mxPoint x="286" y="510.5" as="targetPoint" />
          </mxGeometry>
        </mxCell>
        <mxCell id="aGjcq6fE5PS45IQPLA7D-82" value="" style="endArrow=none;html=1;rounded=0;entryX=0;entryY=0.5;entryDx=0;entryDy=0;exitX=1;exitY=0;exitDx=0;exitDy=0;" parent="1" source="aGjcq6fE5PS45IQPLA7D-74" target="aGjcq6fE5PS45IQPLA7D-75" edge="1">
          <mxGeometry width="50" height="50" relative="1" as="geometry">
            <mxPoint x="311" y="590.5" as="sourcePoint" />
            <mxPoint x="361" y="540.5" as="targetPoint" />
          </mxGeometry>
        </mxCell>
        <mxCell id="aGjcq6fE5PS45IQPLA7D-84" value="" style="endArrow=none;html=1;rounded=0;entryX=0;entryY=1;entryDx=0;entryDy=0;" parent="1" target="aGjcq6fE5PS45IQPLA7D-71" edge="1">
          <mxGeometry width="50" height="50" relative="1" as="geometry">
            <mxPoint x="294" y="556.5" as="sourcePoint" />
            <mxPoint x="361" y="510.5" as="targetPoint" />
          </mxGeometry>
        </mxCell>
        <mxCell id="aGjcq6fE5PS45IQPLA7D-85" value="" style="endArrow=none;html=1;rounded=0;entryX=0.355;entryY=1.07;entryDx=0;entryDy=0;entryPerimeter=0;" parent="1" target="aGjcq6fE5PS45IQPLA7D-73" edge="1">
          <mxGeometry width="50" height="50" relative="1" as="geometry">
            <mxPoint x="281" y="560.5" as="sourcePoint" />
            <mxPoint x="331" y="510.5" as="targetPoint" />
          </mxGeometry>
        </mxCell>
        <mxCell id="aGjcq6fE5PS45IQPLA7D-86" value="feedback" style="ellipse;whiteSpace=wrap;html=1;align=center;" parent="1" vertex="1">
          <mxGeometry x="86" y="730" width="100" height="40" as="geometry" />
        </mxCell>
        <mxCell id="aGjcq6fE5PS45IQPLA7D-87" value="delivery_time" style="ellipse;whiteSpace=wrap;html=1;align=center;" parent="1" vertex="1">
          <mxGeometry x="-220" y="716" width="100" height="40" as="geometry" />
        </mxCell>
        <mxCell id="aGjcq6fE5PS45IQPLA7D-88" value="service_quality" style="ellipse;whiteSpace=wrap;html=1;align=center;" parent="1" vertex="1">
          <mxGeometry x="-9" y="684" width="100" height="40" as="geometry" />
        </mxCell>
        <mxCell id="aGjcq6fE5PS45IQPLA7D-89" value="Vendor_&lt;div&gt;performance&lt;/div&gt;" style="whiteSpace=wrap;html=1;align=center;" parent="1" vertex="1">
          <mxGeometry x="-68" y="812" width="102" height="41" as="geometry" />
        </mxCell>
        <mxCell id="aGjcq6fE5PS45IQPLA7D-90" value="compliance_adherence" style="ellipse;whiteSpace=wrap;html=1;align=center;" parent="1" vertex="1">
          <mxGeometry x="60" y="859" width="130" height="57" as="geometry" />
        </mxCell>
        <mxCell id="aGjcq6fE5PS45IQPLA7D-91" value="rating" style="ellipse;whiteSpace=wrap;html=1;align=center;" parent="1" vertex="1">
          <mxGeometry x="104" y="801" width="100" height="40" as="geometry" />
        </mxCell>
        <mxCell id="aGjcq6fE5PS45IQPLA7D-92" value="performance_id" style="ellipse;whiteSpace=wrap;html=1;align=center;fontStyle=4;" parent="1" vertex="1">
          <mxGeometry x="-202" y="846" width="100" height="40" as="geometry" />
        </mxCell>
        <mxCell id="aGjcq6fE5PS45IQPLA7D-93" value="&lt;span style=&quot;border-bottom: 1px dotted&quot;&gt;verdor id&lt;/span&gt;" style="ellipse;whiteSpace=wrap;html=1;align=center;" parent="1" vertex="1">
          <mxGeometry x="-257" y="792" width="100" height="40" as="geometry" />
        </mxCell>
        <mxCell id="aGjcq6fE5PS45IQPLA7D-94" value="" style="endArrow=none;html=1;rounded=0;exitX=1;exitY=0.5;exitDx=0;exitDy=0;" parent="1" source="aGjcq6fE5PS45IQPLA7D-92" edge="1">
          <mxGeometry width="50" height="50" relative="1" as="geometry">
            <mxPoint x="-118" y="882" as="sourcePoint" />
            <mxPoint x="-68" y="832" as="targetPoint" />
          </mxGeometry>
        </mxCell>
        <mxCell id="aGjcq6fE5PS45IQPLA7D-95" value="" style="endArrow=none;html=1;rounded=0;exitX=1;exitY=1;exitDx=0;exitDy=0;" parent="1" source="aGjcq6fE5PS45IQPLA7D-93" edge="1">
          <mxGeometry width="50" height="50" relative="1" as="geometry">
            <mxPoint x="-118" y="862" as="sourcePoint" />
            <mxPoint x="-68" y="812" as="targetPoint" />
          </mxGeometry>
        </mxCell>
        <mxCell id="aGjcq6fE5PS45IQPLA7D-96" value="" style="endArrow=none;html=1;rounded=0;entryX=0.76;entryY=0.999;entryDx=0;entryDy=0;entryPerimeter=0;" parent="1" target="aGjcq6fE5PS45IQPLA7D-87" edge="1">
          <mxGeometry width="50" height="50" relative="1" as="geometry">
            <mxPoint x="-43" y="812" as="sourcePoint" />
            <mxPoint x="7" y="762" as="targetPoint" />
          </mxGeometry>
        </mxCell>
        <mxCell id="aGjcq6fE5PS45IQPLA7D-97" value="" style="endArrow=none;html=1;rounded=0;entryX=0;entryY=0.5;entryDx=0;entryDy=0;" parent="1" target="aGjcq6fE5PS45IQPLA7D-90" edge="1">
          <mxGeometry width="50" height="50" relative="1" as="geometry">
            <mxPoint x="32" y="842" as="sourcePoint" />
            <mxPoint x="82" y="792" as="targetPoint" />
          </mxGeometry>
        </mxCell>
        <mxCell id="aGjcq6fE5PS45IQPLA7D-98" value="" style="endArrow=none;html=1;rounded=0;entryX=0;entryY=0.5;entryDx=0;entryDy=0;" parent="1" target="aGjcq6fE5PS45IQPLA7D-91" edge="1">
          <mxGeometry width="50" height="50" relative="1" as="geometry">
            <mxPoint x="32" y="822" as="sourcePoint" />
            <mxPoint x="82" y="772" as="targetPoint" />
          </mxGeometry>
        </mxCell>
        <mxCell id="aGjcq6fE5PS45IQPLA7D-99" value="" style="endArrow=none;html=1;rounded=0;entryX=0;entryY=1;entryDx=0;entryDy=0;" parent="1" target="aGjcq6fE5PS45IQPLA7D-86" edge="1">
          <mxGeometry width="50" height="50" relative="1" as="geometry">
            <mxPoint x="32" y="812" as="sourcePoint" />
            <mxPoint x="82" y="762" as="targetPoint" />
          </mxGeometry>
        </mxCell>
        <mxCell id="aGjcq6fE5PS45IQPLA7D-100" value="" style="endArrow=none;html=1;rounded=0;entryX=0.355;entryY=1.07;entryDx=0;entryDy=0;entryPerimeter=0;" parent="1" target="aGjcq6fE5PS45IQPLA7D-88" edge="1">
          <mxGeometry width="50" height="50" relative="1" as="geometry">
            <mxPoint x="2" y="812" as="sourcePoint" />
            <mxPoint x="52" y="762" as="targetPoint" />
          </mxGeometry>
        </mxCell>
        <mxCell id="aGjcq6fE5PS45IQPLA7D-102" value="User" style="whiteSpace=wrap;html=1;align=center;" parent="1" vertex="1">
          <mxGeometry x="416" y="988" width="100" height="40" as="geometry" />
        </mxCell>
        <mxCell id="aGjcq6fE5PS45IQPLA7D-103" value="user id" style="ellipse;whiteSpace=wrap;html=1;align=center;fontStyle=4;" parent="1" vertex="1">
          <mxGeometry x="287" y="1050" width="100" height="40" as="geometry" />
        </mxCell>
        <mxCell id="aGjcq6fE5PS45IQPLA7D-105" value="name" style="ellipse;whiteSpace=wrap;html=1;align=center;" parent="1" vertex="1">
          <mxGeometry x="299" y="924" width="100" height="40" as="geometry" />
        </mxCell>
        <mxCell id="aGjcq6fE5PS45IQPLA7D-107" value="email" style="ellipse;whiteSpace=wrap;html=1;align=center;" parent="1" vertex="1">
          <mxGeometry x="535" y="1080" width="100" height="40" as="geometry" />
        </mxCell>
        <mxCell id="aGjcq6fE5PS45IQPLA7D-108" value="role" style="ellipse;whiteSpace=wrap;html=1;align=center;" parent="1" vertex="1">
          <mxGeometry x="411" y="1083" width="100" height="40" as="geometry" />
        </mxCell>
        <mxCell id="aGjcq6fE5PS45IQPLA7D-109" value="" style="endArrow=none;html=1;rounded=0;" parent="1" edge="1">
          <mxGeometry width="50" height="50" relative="1" as="geometry">
            <mxPoint x="461" y="1078" as="sourcePoint" />
            <mxPoint x="479" y="1028" as="targetPoint" />
          </mxGeometry>
        </mxCell>
        <mxCell id="aGjcq6fE5PS45IQPLA7D-110" value="" style="endArrow=none;html=1;rounded=0;" parent="1" edge="1">
          <mxGeometry width="50" height="50" relative="1" as="geometry">
            <mxPoint x="366" y="1048" as="sourcePoint" />
            <mxPoint x="420" y="1028" as="targetPoint" />
          </mxGeometry>
        </mxCell>
        <mxCell id="aGjcq6fE5PS45IQPLA7D-111" value="" style="endArrow=none;html=1;rounded=0;entryX=0.971;entryY=0.826;entryDx=0;entryDy=0;entryPerimeter=0;" parent="1" target="aGjcq6fE5PS45IQPLA7D-105" edge="1">
          <mxGeometry width="50" height="50" relative="1" as="geometry">
            <mxPoint x="429" y="988" as="sourcePoint" />
            <mxPoint x="479" y="938" as="targetPoint" />
          </mxGeometry>
        </mxCell>
        <mxCell id="aGjcq6fE5PS45IQPLA7D-112" value="" style="endArrow=none;html=1;rounded=0;entryX=0;entryY=0;entryDx=0;entryDy=0;" parent="1" target="aGjcq6fE5PS45IQPLA7D-114" edge="1">
          <mxGeometry width="50" height="50" relative="1" as="geometry">
            <mxPoint x="519" y="1017" as="sourcePoint" />
            <mxPoint x="569" y="1015" as="targetPoint" />
          </mxGeometry>
        </mxCell>
        <mxCell id="aGjcq6fE5PS45IQPLA7D-113" value="" style="endArrow=none;html=1;rounded=0;" parent="1" edge="1">
          <mxGeometry width="50" height="50" relative="1" as="geometry">
            <mxPoint x="508" y="1028" as="sourcePoint" />
            <mxPoint x="558" y="1080" as="targetPoint" />
          </mxGeometry>
        </mxCell>
        <mxCell id="aGjcq6fE5PS45IQPLA7D-114" value="&lt;span style=&quot;border-bottom: 1px dotted&quot;&gt;dept id&lt;/span&gt;" style="ellipse;whiteSpace=wrap;html=1;align=center;" parent="1" vertex="1">
          <mxGeometry x="576" y="1038" width="100" height="40" as="geometry" />
        </mxCell>
        <mxCell id="aGjcq6fE5PS45IQPLA7D-115" value="have" style="shape=rhombus;perimeter=rhombusPerimeter;whiteSpace=wrap;html=1;align=center;" parent="1" vertex="1">
          <mxGeometry x="446" y="346" width="120" height="60" as="geometry" />
        </mxCell>
        <mxCell id="aGjcq6fE5PS45IQPLA7D-117" value="" style="endArrow=none;html=1;rounded=0;exitX=0.5;exitY=0;exitDx=0;exitDy=0;" parent="1" source="aGjcq6fE5PS45IQPLA7D-115" edge="1">
          <mxGeometry width="50" height="50" relative="1" as="geometry">
            <mxPoint x="297" y="314" as="sourcePoint" />
            <mxPoint x="347" y="264" as="targetPoint" />
          </mxGeometry>
        </mxCell>
        <mxCell id="aGjcq6fE5PS45IQPLA7D-118" value="" style="endArrow=none;html=1;rounded=0;entryX=1;entryY=0.5;entryDx=0;entryDy=0;exitX=0;exitY=1;exitDx=0;exitDy=0;" parent="1" source="aGjcq6fE5PS45IQPLA7D-18" target="aGjcq6fE5PS45IQPLA7D-115" edge="1">
          <mxGeometry width="50" height="50" relative="1" as="geometry">
            <mxPoint x="796" y="417" as="sourcePoint" />
            <mxPoint x="566" y="373" as="targetPoint" />
          </mxGeometry>
        </mxCell>
        <mxCell id="aGjcq6fE5PS45IQPLA7D-119" value="1" style="text;html=1;align=center;verticalAlign=middle;resizable=0;points=[];autosize=1;strokeColor=none;fillColor=none;" parent="1" vertex="1">
          <mxGeometry x="335" y="267" width="25" height="26" as="geometry" />
        </mxCell>
        <mxCell id="aGjcq6fE5PS45IQPLA7D-120" value="m" style="text;html=1;align=center;verticalAlign=middle;resizable=0;points=[];autosize=1;strokeColor=none;fillColor=none;" parent="1" vertex="1">
          <mxGeometry x="764" y="347" width="28" height="26" as="geometry" />
        </mxCell>
        <mxCell id="aGjcq6fE5PS45IQPLA7D-121" value="leads" style="shape=rhombus;perimeter=rhombusPerimeter;whiteSpace=wrap;html=1;align=center;" parent="1" vertex="1">
          <mxGeometry x="680" y="497" width="120" height="60" as="geometry" />
        </mxCell>
        <mxCell id="aGjcq6fE5PS45IQPLA7D-122" value="" style="endArrow=none;html=1;rounded=0;exitX=0.5;exitY=0;exitDx=0;exitDy=0;" parent="1" source="aGjcq6fE5PS45IQPLA7D-121" edge="1">
          <mxGeometry width="50" height="50" relative="1" as="geometry">
            <mxPoint x="736" y="506" as="sourcePoint" />
            <mxPoint x="847" y="349" as="targetPoint" />
          </mxGeometry>
        </mxCell>
        <mxCell id="aGjcq6fE5PS45IQPLA7D-123" value="" style="endArrow=none;html=1;rounded=0;entryX=1;entryY=0.5;entryDx=0;entryDy=0;exitX=0.5;exitY=0;exitDx=0;exitDy=0;" parent="1" target="aGjcq6fE5PS45IQPLA7D-121" edge="1">
          <mxGeometry width="50" height="50" relative="1" as="geometry">
            <mxPoint x="822" y="640" as="sourcePoint" />
            <mxPoint x="974" y="537" as="targetPoint" />
          </mxGeometry>
        </mxCell>
        <mxCell id="aGjcq6fE5PS45IQPLA7D-126" value="m" style="text;html=1;align=center;verticalAlign=middle;resizable=0;points=[];autosize=1;strokeColor=none;fillColor=none;" parent="1" vertex="1">
          <mxGeometry x="791" y="590" width="28" height="26" as="geometry" />
        </mxCell>
        <mxCell id="aGjcq6fE5PS45IQPLA7D-128" value="manages" style="shape=rhombus;perimeter=rhombusPerimeter;whiteSpace=wrap;html=1;align=center;" parent="1" vertex="1">
          <mxGeometry x="372" y="720" width="120" height="60" as="geometry" />
        </mxCell>
        <mxCell id="aGjcq6fE5PS45IQPLA7D-129" value="" style="endArrow=none;html=1;rounded=0;entryX=0;entryY=0.5;entryDx=0;entryDy=0;exitX=0.5;exitY=1;exitDx=0;exitDy=0;" parent="1" source="aGjcq6fE5PS45IQPLA7D-74" target="aGjcq6fE5PS45IQPLA7D-128" edge="1">
          <mxGeometry width="50" height="50" relative="1" as="geometry">
            <mxPoint x="57" y="513" as="sourcePoint" />
            <mxPoint x="107" y="463" as="targetPoint" />
          </mxGeometry>
        </mxCell>
        <mxCell id="aGjcq6fE5PS45IQPLA7D-130" value="" style="endArrow=none;html=1;rounded=0;entryX=0;entryY=0.75;entryDx=0;entryDy=0;exitX=1;exitY=0.5;exitDx=0;exitDy=0;" parent="1" source="aGjcq6fE5PS45IQPLA7D-128" target="aGjcq6fE5PS45IQPLA7D-56" edge="1">
          <mxGeometry width="50" height="50" relative="1" as="geometry">
            <mxPoint x="704" y="824" as="sourcePoint" />
            <mxPoint x="798" y="882" as="targetPoint" />
          </mxGeometry>
        </mxCell>
        <mxCell id="aGjcq6fE5PS45IQPLA7D-131" value="1" style="text;html=1;align=center;verticalAlign=middle;resizable=0;points=[];autosize=1;strokeColor=none;fillColor=none;" parent="1" vertex="1">
          <mxGeometry x="254" y="631" width="25" height="26" as="geometry" />
        </mxCell>
        <mxCell id="aGjcq6fE5PS45IQPLA7D-132" value="1" style="text;html=1;align=center;verticalAlign=middle;resizable=0;points=[];autosize=1;strokeColor=none;fillColor=none;" parent="1" vertex="1">
          <mxGeometry x="653" y="809" width="25" height="26" as="geometry" />
        </mxCell>
        <mxCell id="aGjcq6fE5PS45IQPLA7D-134" value="" style="endArrow=none;html=1;rounded=0;" parent="1" edge="1">
          <mxGeometry width="50" height="50" relative="1" as="geometry">
            <mxPoint x="872" y="680" as="sourcePoint" />
            <mxPoint x="845" y="711" as="targetPoint" />
          </mxGeometry>
        </mxCell>
        <mxCell id="aGjcq6fE5PS45IQPLA7D-135" value="" style="endArrow=none;html=1;rounded=0;entryX=0;entryY=0.5;entryDx=0;entryDy=0;" parent="1" edge="1">
          <mxGeometry width="50" height="50" relative="1" as="geometry">
            <mxPoint x="910" y="646" as="sourcePoint" />
            <mxPoint x="1147" y="611" as="targetPoint" />
          </mxGeometry>
        </mxCell>
        <mxCell id="aGjcq6fE5PS45IQPLA7D-136" value="can refer" style="shape=rhombus;perimeter=rhombusPerimeter;whiteSpace=wrap;html=1;align=center;" parent="1" vertex="1">
          <mxGeometry x="473" y="590" width="120" height="60" as="geometry" />
        </mxCell>
        <mxCell id="aGjcq6fE5PS45IQPLA7D-137" value="" style="endArrow=none;html=1;rounded=0;entryX=0;entryY=0.5;entryDx=0;entryDy=0;exitX=1;exitY=0.75;exitDx=0;exitDy=0;" parent="1" source="aGjcq6fE5PS45IQPLA7D-74" target="aGjcq6fE5PS45IQPLA7D-136" edge="1">
          <mxGeometry width="50" height="50" relative="1" as="geometry">
            <mxPoint x="54" y="501" as="sourcePoint" />
            <mxPoint x="104" y="451" as="targetPoint" />
          </mxGeometry>
        </mxCell>
        <mxCell id="aGjcq6fE5PS45IQPLA7D-138" value="" style="endArrow=none;html=1;rounded=0;entryX=0;entryY=0.5;entryDx=0;entryDy=0;exitX=1;exitY=0.5;exitDx=0;exitDy=0;" parent="1" source="aGjcq6fE5PS45IQPLA7D-136" target="aGjcq6fE5PS45IQPLA7D-39" edge="1">
          <mxGeometry width="50" height="50" relative="1" as="geometry">
            <mxPoint x="497" y="557" as="sourcePoint" />
            <mxPoint x="547" y="507" as="targetPoint" />
          </mxGeometry>
        </mxCell>
        <mxCell id="aGjcq6fE5PS45IQPLA7D-139" value="m" style="text;html=1;align=center;verticalAlign=middle;resizable=0;points=[];autosize=1;strokeColor=none;fillColor=none;" parent="1" vertex="1">
          <mxGeometry x="754" y="647" width="28" height="26" as="geometry" />
        </mxCell>
        <mxCell id="aGjcq6fE5PS45IQPLA7D-140" value="1" style="text;html=1;align=center;verticalAlign=middle;resizable=0;points=[];autosize=1;strokeColor=none;fillColor=none;" parent="1" vertex="1">
          <mxGeometry x="326" y="572.5" width="25" height="26" as="geometry" />
        </mxCell>
        <mxCell id="aGjcq6fE5PS45IQPLA7D-142" value="1" style="text;html=1;align=center;verticalAlign=middle;resizable=0;points=[];autosize=1;strokeColor=none;fillColor=none;" parent="1" vertex="1">
          <mxGeometry x="852" y="353" width="25" height="26" as="geometry" />
        </mxCell>
        <mxCell id="aGjcq6fE5PS45IQPLA7D-143" value="have" style="shape=rhombus;perimeter=rhombusPerimeter;whiteSpace=wrap;html=1;align=center;" parent="1" vertex="1">
          <mxGeometry x="535" y="904" width="120" height="60" as="geometry" />
        </mxCell>
        <mxCell id="aGjcq6fE5PS45IQPLA7D-144" value="" style="endArrow=none;html=1;rounded=0;exitX=0.5;exitY=0;exitDx=0;exitDy=0;entryX=0;entryY=1;entryDx=0;entryDy=0;" parent="1" source="aGjcq6fE5PS45IQPLA7D-143" target="aGjcq6fE5PS45IQPLA7D-56" edge="1">
          <mxGeometry width="50" height="50" relative="1" as="geometry">
            <mxPoint x="574" y="914" as="sourcePoint" />
            <mxPoint x="624" y="864" as="targetPoint" />
          </mxGeometry>
        </mxCell>
        <mxCell id="aGjcq6fE5PS45IQPLA7D-145" value="" style="endArrow=none;html=1;rounded=0;entryX=0;entryY=0.5;entryDx=0;entryDy=0;" parent="1" target="aGjcq6fE5PS45IQPLA7D-143" edge="1">
          <mxGeometry width="50" height="50" relative="1" as="geometry">
            <mxPoint x="514" y="988" as="sourcePoint" />
            <mxPoint x="679" y="934" as="targetPoint" />
          </mxGeometry>
        </mxCell>
        <mxCell id="aGjcq6fE5PS45IQPLA7D-146" value="1" style="text;html=1;align=center;verticalAlign=middle;resizable=0;points=[];autosize=1;strokeColor=none;fillColor=none;" parent="1" vertex="1">
          <mxGeometry x="667" y="880" width="25" height="26" as="geometry" />
        </mxCell>
        <mxCell id="aGjcq6fE5PS45IQPLA7D-147" value="m" style="text;html=1;align=center;verticalAlign=middle;resizable=0;points=[];autosize=1;strokeColor=none;fillColor=none;" parent="1" vertex="1">
          <mxGeometry x="496" y="952" width="28" height="26" as="geometry" />
        </mxCell>
        <mxCell id="aGjcq6fE5PS45IQPLA7D-148" value="has" style="shape=rhombus;perimeter=rhombusPerimeter;whiteSpace=wrap;html=1;align=center;" parent="1" vertex="1">
          <mxGeometry x="-129" y="437" width="120" height="60" as="geometry" />
        </mxCell>
        <mxCell id="aGjcq6fE5PS45IQPLA7D-149" value="" style="endArrow=none;html=1;rounded=0;" parent="1" edge="1">
          <mxGeometry width="50" height="50" relative="1" as="geometry">
            <mxPoint x="-29" y="805" as="sourcePoint" />
            <mxPoint x="-70" y="499" as="targetPoint" />
          </mxGeometry>
        </mxCell>
        <mxCell id="aGjcq6fE5PS45IQPLA7D-150" value="" style="endArrow=none;html=1;rounded=0;exitX=0.5;exitY=0;exitDx=0;exitDy=0;" parent="1" source="aGjcq6fE5PS45IQPLA7D-148" edge="1">
          <mxGeometry width="50" height="50" relative="1" as="geometry">
            <mxPoint x="201" y="319" as="sourcePoint" />
            <mxPoint x="251" y="269" as="targetPoint" />
          </mxGeometry>
        </mxCell>
        <mxCell id="aGjcq6fE5PS45IQPLA7D-151" value="1" style="text;html=1;align=center;verticalAlign=middle;resizable=0;points=[];autosize=1;strokeColor=none;fillColor=none;" parent="1" vertex="1">
          <mxGeometry x="194" y="295" width="25" height="26" as="geometry" />
        </mxCell>
        <mxCell id="aGjcq6fE5PS45IQPLA7D-152" value="1" style="text;html=1;align=center;verticalAlign=middle;resizable=0;points=[];autosize=1;strokeColor=none;fillColor=none;" parent="1" vertex="1">
          <mxGeometry x="-74" y="701" width="25" height="26" as="geometry" />
        </mxCell>
        <mxCell id="aGjcq6fE5PS45IQPLA7D-155" value="tracks" style="shape=rhombus;perimeter=rhombusPerimeter;whiteSpace=wrap;html=1;align=center;" parent="1" vertex="1">
          <mxGeometry x="1067" y="816" width="120" height="60" as="geometry" />
        </mxCell>
        <mxCell id="aGjcq6fE5PS45IQPLA7D-156" value="" style="endArrow=none;html=1;rounded=0;" parent="1" edge="1">
          <mxGeometry width="50" height="50" relative="1" as="geometry">
            <mxPoint x="516" y="1007" as="sourcePoint" />
            <mxPoint x="1132" y="996" as="targetPoint" />
          </mxGeometry>
        </mxCell>
        <mxCell id="aGjcq6fE5PS45IQPLA7D-157" value="" style="endArrow=none;html=1;rounded=0;" parent="1" edge="1">
          <mxGeometry width="50" height="50" relative="1" as="geometry">
            <mxPoint x="1132" y="999" as="sourcePoint" />
            <mxPoint x="1127" y="876" as="targetPoint" />
          </mxGeometry>
        </mxCell>
        <mxCell id="aGjcq6fE5PS45IQPLA7D-158" value="" style="endArrow=none;html=1;rounded=0;exitX=0;exitY=0.5;exitDx=0;exitDy=0;" parent="1" source="aGjcq6fE5PS45IQPLA7D-155" edge="1">
          <mxGeometry width="50" height="50" relative="1" as="geometry">
            <mxPoint x="839.5" y="730" as="sourcePoint" />
            <mxPoint x="889.5" y="680" as="targetPoint" />
          </mxGeometry>
        </mxCell>
        <mxCell id="aGjcq6fE5PS45IQPLA7D-161" value="m" style="edgeLabel;html=1;align=center;verticalAlign=middle;resizable=0;points=[];" parent="aGjcq6fE5PS45IQPLA7D-158" vertex="1" connectable="0">
          <mxGeometry x="0.3854" y="6" relative="1" as="geometry">
            <mxPoint as="offset" />
          </mxGeometry>
        </mxCell>
        <mxCell id="aGjcq6fE5PS45IQPLA7D-160" value="1" style="text;html=1;align=center;verticalAlign=middle;resizable=0;points=[];autosize=1;strokeColor=none;fillColor=none;" parent="1" vertex="1">
          <mxGeometry x="544" y="984" width="25" height="26" as="geometry" />
        </mxCell>
      </root>
    </mxGraphModel>
  </diagram>
</mxfile>
